<?xml version="1.0" encoding="utf-8"?>
<!-- Generator: Adobe Illustrator 22.1.0, SVG Export Plug-In . SVG Version: 6.00 Build 0)  -->
<svg version="1.1" id="Layer_1" xmlns="http://www.w3.org/2000/svg" xmlns:xlink="http://www.w3.org/1999/xlink" x="0px" y="0px"
	 viewBox="0 0 24 24" style="enable-background:new 0 0 24 24;" xml:space="preserve">
<style type="text/css">
	.st0{fill:#FFFFFF;}
</style>
<path class="st0" d="M10.5,7c-0.4,0-0.7,0.5-0.4,0.9l3.6,3.6l-3.6,3.6c-0.5,0.5,0.2,1.2,0.7,0.7l4-4c0.2-0.2,0.2-0.5,0-0.7l-4-4
	C10.8,7.1,10.6,7,10.5,7z M0.5,11h10c0.3,0,0.5,0.2,0.5,0.5S10.8,12,10.5,12h-10C0.2,12,0,11.8,0,11.5S0.2,11,0.5,11z M6.5,0
	C5.7,0,5,0.7,5,1.5v5c0,0.7,1,0.7,1,0v-5C6,1.2,6.2,1,6.5,1h16C22.8,1,23,1.2,23,1.5v21c0,0.3-0.2,0.5-0.5,0.5h-16
	C6.2,23,6,22.8,6,22.5v-6c0-0.7-1-0.7-1,0v6C5,23.3,5.7,24,6.5,24h16c0.8,0,1.5-0.7,1.5-1.5v-21C24,0.7,23.3,0,22.5,0H6.5z"/>
</svg>
