<?xml version="1.0" encoding="utf-8"?>
<!-- Generator: Adobe Illustrator 22.1.0, SVG Export Plug-In . SVG Version: 6.00 Build 0)  -->
<svg version="1.1" id="Layer_1" xmlns="http://www.w3.org/2000/svg" xmlns:xlink="http://www.w3.org/1999/xlink" x="0px" y="0px"
	 viewBox="0 0 16 16" style="enable-background:new 0 0 16 16;" xml:space="preserve">
<style type="text/css">
	.st0{fill:#FFFFFF;}
</style>
<path class="st0" d="M7.5,13h1c0.7,0,0.7,1,0,1h-1C6.8,14,6.8,13,7.5,13z M4.5,0C3.7,0,3,0.7,3,1.5v13C3,15.3,3.7,16,4.5,16h7
	c0.8,0,1.5-0.7,1.5-1.5v-13C13,0.7,12.3,0,11.5,0H4.5z M4.5,1h7C11.8,1,12,1.2,12,1.5v13c0,0.3-0.2,0.5-0.5,0.5h-7
	C4.2,15,4,14.8,4,14.5v-13C4,1.2,4.2,1,4.5,1z"/>
</svg>
