<?xml version="1.0" encoding="utf-8"?>
<!-- Generator: Adobe Illustrator 22.1.0, SVG Export Plug-In . SVG Version: 6.00 Build 0)  -->
<svg version="1.1" id="Layer_1" xmlns="http://www.w3.org/2000/svg" xmlns:xlink="http://www.w3.org/1999/xlink" x="0px" y="0px"
	 viewBox="0 0 24 24" style="enable-background:new 0 0 24 24;" xml:space="preserve">
<style type="text/css">
	.st0{fill:#FFFFFF;}
</style>
<path class="st0" d="M12,5C9.8,5,8,6.8,8,9s1.8,4,4,4s4-1.8,4-4S14.2,5,12,5z M12,6c1.7,0,3,1.3,3,3s-1.3,3-3,3s-3-1.3-3-3
	S10.3,6,12,6z M12,0C6.5,0,2,4.5,2,10c0,3.2,2.1,6.6,4.3,9.3c1.1,1.3,2.3,2.5,3.3,3.3c0.5,0.4,0.9,0.7,1.3,1
	c0.4,0.2,0.7,0.4,1.1,0.4s0.7-0.2,1.1-0.4c0.4-0.2,0.8-0.6,1.3-1c1-0.8,2.1-2,3.3-3.3c2.2-2.7,4.3-6.1,4.3-9.3C22,4.5,17.5,0,12,0z
	 M12,1c5,0,9,4,9,9c0,2.8-1.9,6.1-4.1,8.7c-1.1,1.3-2.2,2.4-3.1,3.2c-0.5,0.4-0.9,0.7-1.2,0.9C12.2,22.9,12,23,12,23
	s-0.2-0.1-0.6-0.3c-0.3-0.2-0.7-0.5-1.2-0.9c-0.9-0.8-2.1-1.9-3.1-3.2C4.9,16.1,3,12.8,3,10C3,5,7,1,12,1z"/>
</svg>
